<svg width="155" height="87" viewBox="0 0 155 87" fill="none" xmlns="http://www.w3.org/2000/svg">
<path d="M30.4284 65.5973L32.6501 70.5539H28.1886L30.4284 65.5973ZM29.9231 64.3168L25.4615 74.1086H26.5965L27.7575 71.5396H33.0852L34.2322 74.1086H35.4193L30.9577 64.3168H29.9231Z" fill="white"/>
<path d="M36.0871 64.3866V65.4022H39.3736V74.1087H40.4945V65.4022H43.781V64.3866H36.0871Z" fill="white"/>
<path d="M58.2263 71.3727C58.2263 70.3013 57.33 69.6939 55.6196 69.6939H52.5316V73.1231H55.8201C57.3039 73.1231 58.2263 72.4699 58.2263 71.3727ZM57.6789 66.9696C57.6789 65.9978 56.9109 65.3765 55.5133 65.3765H52.5316V68.7161H55.4271C56.7565 68.7161 57.6789 68.1187 57.6789 66.9637V66.9696ZM58.7978 66.8123C58.7978 68.0888 58.0138 68.742 57.2458 69.0765C58.4068 69.4211 59.3432 70.0902 59.3432 71.4384C59.3432 73.1171 57.9396 74.1029 55.79 74.1029H51.4428V64.3848H55.6096C57.5406 64.3848 58.7978 65.3307 58.7978 66.8183" fill="white"/>
<path d="M66.3633 65.5973L68.587 70.5539H64.1235L66.3633 65.5973ZM65.858 64.3168L61.3965 74.1086H62.5294L63.6924 71.5396H69.0202L70.1671 74.1086H71.3542L66.8927 64.3168H65.858Z" fill="white"/>
<path d="M81.1855 64.3866V72.179L75.0156 64.3866H73.9809V74.1087H75.0597V66.137L81.38 74.1087H82.2603V64.3866H81.1855Z" fill="white"/>
<path d="M92.4546 64.3866L86.8321 70.1916V64.3866H85.7292V74.1087H86.8321V71.4999L88.9175 69.403L92.6792 74.1087H94.0648L89.6855 68.6363L93.8803 64.3866H92.4546Z" fill="white"/>
<path d="M99.8517 68.7159C102.033 69.1878 103.038 69.9804 103.038 71.478C103.038 73.1607 101.634 74.242 99.6973 74.242C98.2115 74.2599 96.7773 73.702 95.699 72.6867L96.3807 71.8902C97.4034 72.8082 98.3859 73.2662 99.7374 73.2662C101.055 73.2662 101.919 72.5832 101.919 71.5974C101.919 70.6814 101.432 70.1636 99.3765 69.7375C97.1246 69.2496 96.088 68.5287 96.088 66.9176C96.088 65.3623 97.4455 64.2491 99.2963 64.2491C100.552 64.2137 101.777 64.6391 102.737 65.444L102.095 66.2903C101.312 65.6129 100.309 65.2389 99.2702 65.2369C97.9969 65.2369 97.1868 65.9299 97.1868 66.83C97.1868 67.76 97.6881 68.2758 99.8437 68.7338" fill="white"/>
<path d="M107.193 64.3887H106.088V74.1108H107.193V64.3887Z" fill="white"/>
<path d="M114.156 65.4003H111.861V73.0971H114.156C116.631 73.0971 118.211 71.4303 118.211 69.2617C118.211 67.093 116.631 65.4023 114.156 65.4023V65.4003ZM114.156 74.1128H110.748V64.3887H114.156C117.23 64.3887 119.356 66.4856 119.356 69.2358C119.356 71.9859 117.23 74.1108 114.156 74.1108" fill="white"/>
<path d="M122.39 64.3866V74.1087H129.534V73.111H123.495V69.7077H128.838V68.708H123.495V65.3883H129.47V64.3866H122.39Z" fill="white"/>
<path d="M27.1982 13.1715H0V16.4215H0.80207C1.00259 16.4215 9.26592 16.3976 12.1875 16.3956C12.1875 19.5142 12.1875 45.6854 12.1875 46.6651V47.4617H15.7767V16.3956C19.0752 16.3956 26.9455 16.4215 27.1902 16.4215H27.9922V13.1715H27.1982Z" fill="white"/>
<path d="M63.7786 13.9022V13.1056H60.1833V13.9022C60.1833 15.4953 60.2334 25.5022 60.2354 28.0412H39.7045C39.7045 25.3449 39.7138 22.8125 39.7325 20.444C39.7473 17.8405 39.7546 15.6573 39.7546 13.8942V13.0977H36.1633V47.4715H39.7546V46.6749C39.7546 45.7768 39.7065 34.1031 39.7045 31.3052C40.4404 31.3052 59.4594 31.3052 60.2354 31.3052C60.2354 36.7537 60.1833 46.0198 60.1833 46.6749V47.4715H63.7786V13.9022Z" fill="white"/>
<path d="M80.947 13.9022V13.1056H77.3517V13.9022C77.3517 17.1508 77.361 20.284 77.3798 23.3016C77.3985 26.3193 77.4065 28.7568 77.4038 30.6141C77.4038 35.3099 77.3958 38.9137 77.3798 41.4255C77.3637 43.9374 77.3544 45.6845 77.3517 46.6669V47.4635H80.947V46.6669C80.947 45.6872 80.9389 43.8371 80.9229 41.1168C80.9069 38.3966 80.8982 34.5611 80.8968 29.6105C80.8968 27.6549 80.9055 25.1324 80.9229 22.0431C80.9403 18.9537 80.9483 16.2407 80.947 13.9042" fill="white"/>
<path d="M119.053 45.4859C118.917 45.3485 118.179 44.4902 114.79 40.3441C112.424 37.4426 110.277 34.7482 108.4 32.3207C109.968 31.5537 111.365 30.4833 112.51 29.1723C113.946 27.5453 114.672 25.3886 114.672 22.7997C114.687 20.9975 114.154 19.2326 113.144 17.7356C112.187 16.2825 110.837 15.1276 109.248 14.4039C108.042 13.871 106.767 13.507 105.46 13.3226C104.09 13.1135 102.706 13.0083 101.319 13.0079C100.148 13.0079 98.8792 13.0239 97.5097 13.0557C96.1401 13.0876 95.4122 13.1055 95.2498 13.1055H94.4478V47.4714H98.037V46.6649C98.037 45.6871 98.019 18.9523 98.037 16.1823C98.2375 16.1823 98.4661 16.1822 98.7328 16.1643C99.5349 16.1404 100.243 16.1265 100.876 16.1265C102.119 16.1234 103.36 16.2106 104.59 16.3874C105.611 16.5204 106.603 16.8156 107.53 17.2616C108.588 17.7885 109.484 18.5885 110.124 19.5776C110.78 20.6283 111.113 21.8466 111.081 23.0825C111.081 24.2216 110.912 25.1715 110.583 25.9024C110.268 26.6187 109.823 27.272 109.272 27.83C108.588 28.5254 107.808 29.1214 106.956 29.6004C106.16 30.0298 105.322 30.378 104.456 30.6399L103.942 30.7933L103.826 31.8647L104.026 32.1215C107.604 36.7237 110.493 40.3939 112.615 43.0405C114.736 45.6871 116.023 47.2802 116.402 47.7382L116.914 48.3596L119.691 46.1172L119.053 45.4859Z" fill="white"/>
<path d="M131.423 20.9218C131.435 19.03 131.443 17.47 131.445 16.242H132.338C134.833 16.2111 137.324 16.4738 139.757 17.0246C141.797 17.5053 143.745 18.3124 145.524 19.4143C147.573 20.7167 149.079 22.3059 150.003 24.136C150.928 25.9661 151.407 28.1188 151.407 30.4567C151.433 32.666 150.886 34.8448 149.819 36.7835C148.77 38.6693 147.152 40.2963 145.006 41.6186C143.299 42.652 141.422 43.3775 139.46 43.7614C137.117 44.2179 134.733 44.4381 132.346 44.4186H131.439C131.43 42.5944 131.42 40.5539 131.409 38.2969C131.401 35.7028 131.397 32.3021 131.397 28.0949C131.397 25.6495 131.406 23.2598 131.423 20.9258V20.9218ZM153.264 22.7141C152.105 20.42 150.326 18.4744 147.988 16.939C145.9 15.5929 143.594 14.6153 141.17 14.0495C138.59 13.4102 135.628 13.0836 132.374 13.0836H130.32C129.593 13.0836 129.027 13.0936 128.626 13.1075L127.844 13.1394V13.912C127.844 15.545 127.853 17.9201 127.87 21.0373C127.888 24.1546 127.896 27.2525 127.894 30.3313C127.894 35.1903 127.886 38.9488 127.87 41.6067C127.854 44.2646 127.845 45.9712 127.844 46.7266V47.5013L128.628 47.5311C129.075 47.5471 129.789 47.561 130.774 47.5809C131.758 47.6008 132.596 47.6028 133.288 47.6028C136.22 47.6028 138.828 47.3101 141.044 46.7326C143.311 46.1405 145.474 45.2106 147.461 43.9745C149.743 42.5286 151.641 40.5588 152.995 38.2312C154.34 35.867 155.031 33.1918 155 30.4767C155 27.609 154.417 24.9963 153.264 22.7101" fill="white"/>
</svg>
