<svg width="442" height="414" viewBox="0 0 442 414" fill="none" xmlns="http://www.w3.org/2000/svg">
<line x1="1.7144" y1="85.0343" x2="441.163" y2="299.368" stroke="#85754E" stroke-width="2"/>
<line x1="1.7144" y1="55.0343" x2="441.163" y2="269.368" stroke="#85754E" stroke-width="2"/>
<line x1="1.7144" y1="25.0343" x2="441.163" y2="239.368" stroke="#85754E" stroke-width="2"/>
<path d="M441.163 209.368L14 1.19897" stroke="#85754E" stroke-width="2"/>
<path d="M441.163 179.368L75.5003 1.19946" stroke="#85754E" stroke-width="2"/>
<path d="M441.163 149.368L137.5 1.19922" stroke="#85754E" stroke-width="2"/>
<path d="M441.163 119.368L199 1.19922" stroke="#85754E" stroke-width="2"/>
<path d="M441.163 89.3683L260 1.19946" stroke="#85754E" stroke-width="2"/>
<path d="M441.163 59.368L321.5 1.19922" stroke="#85754E" stroke-width="2"/>
<path d="M441.163 29.3678L383 1" stroke="#85754E" stroke-width="2"/>
<line x1="440.749" y1="328.932" x2="1.30039" y2="114.598" stroke="#85754E" stroke-width="2"/>
<line x1="440.749" y1="358.932" x2="1.30039" y2="144.598" stroke="#85754E" stroke-width="2"/>
<line x1="440.749" y1="388.932" x2="1.30039" y2="174.598" stroke="#85754E" stroke-width="2"/>
<path d="M1.30039 204.598L428.463 412.767" stroke="#85754E" stroke-width="2"/>
<path d="M1.30033 234.598L366.963 412.767" stroke="#85754E" stroke-width="2"/>
<path d="M1.3004 264.598L304.963 412.767" stroke="#85754E" stroke-width="2"/>
<path d="M1.30042 294.598L243.463 412.767" stroke="#85754E" stroke-width="2"/>
<path d="M1.30035 324.598L182.463 412.767" stroke="#85754E" stroke-width="2"/>
<path d="M1.3004 354.598L120.963 412.767" stroke="#85754E" stroke-width="2"/>
<path d="M1.30039 384.598L59.463 412.966" stroke="#85754E" stroke-width="2"/>
</svg>
