<svg width="24" height="26" viewBox="0 0 24 26" fill="none" xmlns="http://www.w3.org/2000/svg">
<path fill-rule="evenodd" clip-rule="evenodd" d="M4 3.03167C4 1.6544 5.19391 0.537903 6.66667 0.537903H17.3333C18.8061 0.537903 20 1.6544 20 3.03167V22.0749C20 23.4522 18.8061 24.5687 17.3333 24.5687H6.66667C5.19391 24.5687 4 23.4522 4 22.0749V3.03167ZM6.66667 1.89814C5.99723 1.89814 5.45455 2.40564 5.45455 3.03167V22.0749C5.45455 22.701 5.99723 23.2085 6.66667 23.2085H17.3333C18.0028 23.2085 18.5455 22.701 18.5455 22.0749V3.03167C18.5455 2.40564 18.0028 1.89814 17.3333 1.89814H6.66667Z" fill="#191919"/>
<path fill-rule="evenodd" clip-rule="evenodd" d="M10.5459 20.488C10.5459 20.1124 10.8715 19.8079 11.2732 19.8079H12.7277C13.1294 19.8079 13.455 20.1124 13.455 20.488C13.455 20.8636 13.1294 21.1681 12.7277 21.1681H11.2732C10.8715 21.1681 10.5459 20.8636 10.5459 20.488Z" fill="#191919"/>
</svg>
